<?xml version="1.0" standalone="no"?>
<!DOCTYPE svg PUBLIC "-//W3C//DTD SVG 20010904//EN"
 "http://www.w3.org/TR/2001/REC-SVG-20010904/DTD/svg10.dtd">
<svg version="1.0" xmlns="http://www.w3.org/2000/svg"
 width="3028.000000pt" height="3028.000000pt" viewBox="0 0 3028.000000 3028.000000"
 preserveAspectRatio="xMidYMid meet">
<metadata>
Created by potrace 1.11, written by Peter Selinger 2001-2013
</metadata>
<g transform="translate(0.000000,3028.000000) scale(0.100000,-0.100000)"
fill="#000000" stroke="none">
<path d="M15375 29867 c-221 -151 -244 -167 -351 -248 -91 -67 -232 -177 -244
-189 -3 -3 -27 -23 -55 -44 -27 -22 -57 -47 -66 -55 -9 -9 -29 -27 -45 -40
-141 -117 -278 -247 -489 -461 -604 -612 -1111 -1390 -1411 -2162 -20 -51 -45
-115 -56 -142 -11 -27 -21 -56 -23 -65 -3 -9 -23 -68 -45 -131 -33 -93 -141
-453 -155 -519 -2 -9 -17 -74 -34 -146 -31 -138 -66 -307 -76 -365 -3 -19 -12
-71 -20 -115 -8 -44 -19 -118 -25 -165 -6 -47 -13 -96 -15 -110 -6 -38 -23
-184 -30 -255 -1 -16 -6 -73 -9 -125 -4 -52 -9 -108 -11 -125 -28 -220 -21
-1074 10 -1385 3 -25 7 -76 10 -115 8 -101 12 -148 19 -202 3 -27 8 -73 11
-103 4 -30 8 -66 10 -80 2 -14 7 -50 10 -80 7 -60 10 -84 20 -145 3 -22 8 -53
10 -70 2 -16 9 -61 15 -100 6 -38 13 -81 15 -95 2 -14 6 -41 10 -60 l6 -34
-34 44 c-18 25 -62 86 -97 135 -66 92 -282 378 -307 405 -7 8 -36 44 -65 80
-56 70 -222 269 -258 310 -12 14 -47 54 -78 90 -54 61 -120 135 -221 245 -87
94 -496 501 -585 580 -48 44 -102 93 -120 109 -17 16 -87 77 -156 135 -69 58
-130 110 -136 116 -6 5 -26 21 -44 35 -18 14 -38 30 -44 35 -6 6 -56 45 -111
88 -55 43 -107 83 -115 90 -147 119 -671 473 -854 577 -17 9 -70 40 -118 69
-48 28 -91 51 -97 51 -6 0 -11 3 -11 8 0 4 -17 15 -37 24 -21 10 -63 32 -93
49 -280 160 -808 394 -1200 531 -227 79 -652 204 -795 234 -11 2 -29 6 -40 8
-182 41 -489 99 -590 111 -63 8 -112 14 -150 20 -169 25 -403 39 -660 40 -187
0 -383 -10 -393 -20 -2 -2 -8 -23 -14 -47 -25 -110 -97 -469 -103 -518 -3 -25
-8 -56 -10 -70 -4 -23 -7 -42 -19 -117 -3 -16 -8 -53 -11 -83 -3 -30 -8 -66
-10 -80 -5 -30 -12 -103 -20 -190 -4 -36 -8 -81 -10 -101 -25 -215 -25 -903 0
-1109 2 -19 7 -71 11 -115 3 -44 8 -87 9 -95 2 -8 6 -44 10 -80 4 -36 9 -74
11 -85 2 -10 6 -37 9 -60 5 -37 17 -106 30 -180 49 -283 153 -680 246 -945 78
-224 100 -284 114 -315 8 -16 33 -75 56 -130 111 -265 252 -546 403 -800 39
-66 73 -124 76 -130 16 -32 128 -202 291 -440 22 -33 158 -214 186 -250 4 -5
42 -53 83 -105 41 -52 77 -97 80 -100 3 -3 27 -32 55 -65 27 -33 52 -62 55
-65 3 -3 20 -23 39 -45 239 -282 608 -650 1001 -999 80 -71 285 -240 430 -355
85 -67 162 -128 170 -134 8 -7 49 -37 90 -67 41 -30 80 -58 85 -63 6 -4 26
-19 45 -33 38 -28 37 -28 -47 -7 -16 3 -37 8 -48 10 -11 2 -56 11 -100 19 -44
9 -89 18 -100 19 -11 2 -56 10 -100 19 -68 13 -163 30 -297 52 -16 2 -41 6
-56 9 -16 3 -46 7 -68 10 -21 2 -50 7 -64 9 -14 3 -47 8 -75 11 -27 3 -61 8
-75 10 -14 2 -70 9 -125 15 -55 6 -111 13 -125 15 -14 2 -56 7 -95 10 -38 3
-86 8 -105 10 -63 8 -154 16 -240 20 -47 3 -105 7 -130 10 -262 24 -925 24
-1355 0 -132 -7 -359 -28 -540 -50 -27 -3 -66 -8 -85 -10 -56 -6 -133 -17
-155 -21 -10 -2 -37 -6 -60 -9 -49 -7 -141 -23 -270 -45 -68 -12 -98 -18 -185
-36 -41 -9 -86 -18 -100 -20 -14 -3 -33 -7 -42 -10 -10 -3 -30 -7 -45 -10 -16
-3 -64 -14 -108 -25 -76 -20 -92 -24 -133 -33 -188 -43 -633 -182 -909 -285
-977 -364 -1951 -977 -2462 -1550 -36 -41 -36 -41 -13 -72 10 -13 33 -49 51
-79 75 -129 284 -444 385 -580 47 -63 93 -126 103 -139 24 -33 185 -235 192
-241 4 -3 47 -52 96 -110 495 -578 1114 -1088 1788 -1471 140 -80 440 -232
557 -283 36 -16 88 -39 117 -52 313 -140 802 -302 1213 -400 199 -48 347 -78
570 -118 26 -5 134 -21 205 -31 107 -15 257 -34 320 -40 39 -4 81 -8 95 -10
14 -2 66 -7 115 -10 50 -3 101 -8 115 -10 14 -2 88 -7 165 -11 77 -3 163 -8
190 -10 70 -5 785 -4 870 1 39 2 121 6 182 9 133 8 225 14 308 21 33 2 96 7
140 10 44 4 91 8 105 10 14 2 54 6 90 10 36 3 81 8 100 10 19 2 60 7 90 10 30
4 66 8 80 10 32 5 170 23 235 30 28 4 57 8 65 10 8 2 35 7 60 10 25 3 101 15
170 26 69 12 139 23 155 25 17 3 41 7 55 9 23 4 23 4 6 -8 -24 -16 -80 -51
-196 -122 -831 -513 -1656 -1166 -2302 -1822 -136 -138 -161 -164 -283 -298
-44 -48 -85 -93 -91 -99 -28 -29 -245 -289 -294 -351 -30 -39 -57 -72 -60 -75
-10 -8 -224 -291 -269 -355 -58 -83 -321 -475 -321 -479 0 -2 -35 -61 -79
-133 -118 -194 -206 -356 -340 -628 -110 -222 -221 -477 -300 -690 -29 -77
-56 -149 -61 -160 -17 -39 -147 -452 -155 -495 -2 -11 -6 -24 -9 -28 -3 -5 -7
-19 -10 -33 -2 -13 -20 -87 -39 -164 -19 -77 -40 -165 -46 -195 -6 -30 -14
-66 -17 -80 -3 -14 -7 -38 -10 -55 -3 -16 -9 -52 -15 -80 -17 -90 -19 -99 -24
-140 -3 -22 -8 -51 -10 -65 -8 -41 -13 -82 -21 -145 -3 -33 -8 -67 -9 -76 -2
-9 -6 -52 -10 -95 -4 -43 -9 -92 -11 -109 -27 -231 -15 -811 19 -853 5 -7 12
-11 14 -8 2 2 19 0 36 -5 18 -4 48 -11 67 -14 19 -3 80 -14 135 -25 55 -10
118 -22 140 -25 137 -20 236 -35 275 -40 25 -3 56 -8 70 -10 14 -2 57 -7 95
-11 39 -3 81 -8 95 -10 14 -1 63 -6 110 -9 47 -4 101 -8 120 -11 200 -21 885
-21 1066 1 16 1 67 6 114 10 47 4 99 8 115 10 17 2 59 7 95 11 36 3 67 8 70 9
3 2 34 6 70 10 36 4 67 8 70 10 3 2 29 6 59 10 30 4 63 9 75 11 12 2 35 6 51
9 17 3 50 10 75 15 25 5 56 12 70 14 63 11 187 39 296 67 65 17 137 35 159 40
52 13 243 72 370 114 225 75 434 158 695 276 198 89 630 321 747 400 23 16 45
29 48 29 9 0 417 275 513 345 136 100 447 345 462 364 3 4 17 16 31 27 22 17
92 78 198 172 217 194 526 503 744 746 55 61 116 129 136 151 87 97 335 401
456 559 17 22 54 71 84 110 80 105 250 340 310 429 29 43 55 77 57 75 2 -3 -7
-63 -21 -134 -14 -71 -28 -145 -31 -164 -3 -19 -7 -42 -9 -50 -2 -8 -7 -30
-10 -47 -9 -56 -16 -97 -21 -128 -7 -39 -13 -81 -19 -125 -3 -19 -7 -50 -10
-67 -3 -18 -7 -50 -10 -70 -3 -21 -10 -67 -15 -103 -5 -36 -12 -87 -15 -115
-3 -27 -8 -63 -10 -80 -2 -16 -7 -55 -10 -85 -3 -30 -7 -71 -9 -90 -3 -19 -7
-71 -11 -115 -3 -44 -8 -91 -10 -105 -2 -14 -7 -70 -10 -125 -4 -55 -8 -125
-10 -155 -23 -336 -23 -1074 0 -1310 2 -19 6 -80 10 -135 3 -55 8 -113 10
-130 2 -16 6 -64 10 -105 4 -41 8 -86 10 -100 2 -14 7 -50 10 -80 3 -30 8 -66
10 -80 2 -14 9 -61 15 -106 6 -44 12 -89 14 -100 2 -10 7 -39 10 -64 3 -25 8
-56 11 -70 2 -14 13 -77 25 -140 11 -63 23 -127 25 -142 13 -71 79 -356 106
-458 33 -126 37 -140 44 -171 2 -12 9 -36 14 -53 125 -408 165 -526 267 -782
118 -299 156 -384 304 -679 59 -115 144 -275 190 -355 75 -130 285 -467 300
-480 3 -3 30 -41 60 -85 48 -70 151 -211 187 -255 6 -8 51 -64 100 -125 48
-60 92 -115 98 -121 6 -6 35 -40 65 -75 97 -113 412 -422 510 -500 146 -117
115 -116 278 -5 199 135 455 320 537 388 11 9 76 63 145 119 69 57 130 108
136 113 6 6 47 42 90 81 84 74 452 439 519 515 41 46 169 194 191 220 72 87
124 153 197 250 48 63 91 120 97 127 5 7 10 16 10 22 0 5 4 11 9 13 4 2 50 66
101 143 50 77 105 159 121 183 16 23 29 45 29 47 0 2 25 45 55 95 30 50 55 93
55 95 0 2 14 28 31 57 70 117 211 408 295 608 25 58 49 114 54 125 82 186 271
789 314 1005 3 14 16 77 30 141 31 140 72 364 81 438 4 30 8 62 10 71 2 9 6
41 10 71 3 30 8 61 10 69 2 8 7 48 10 88 4 41 8 82 10 92 2 10 6 58 10 107 4
48 8 104 10 123 20 217 27 921 11 1195 -4 77 -9 160 -11 185 -2 41 -13 172
-20 245 -2 17 -6 62 -10 100 -3 39 -8 81 -10 95 -2 14 -7 57 -11 95 -4 39 -8
75 -9 80 -2 20 -17 131 -20 154 -3 13 -7 45 -10 70 -4 25 -10 69 -15 96 -5 28
-11 66 -14 85 -3 19 -10 58 -15 85 l-9 50 19 -25 c10 -14 22 -29 27 -35 4 -5
30 -41 57 -80 189 -268 646 -835 831 -1030 16 -17 72 -78 125 -135 235 -255
588 -595 864 -831 454 -389 1075 -824 1510 -1059 44 -23 85 -47 91 -51 5 -5
103 -55 216 -113 736 -373 1476 -626 2243 -765 61 -11 128 -23 150 -26 23 -3
50 -7 60 -9 11 -2 49 -7 85 -12 36 -4 67 -8 70 -9 3 -1 39 -5 80 -9 41 -4 91
-9 110 -12 172 -19 637 -26 770 -12 36 4 75 7 86 7 21 1 26 11 41 96 2 11 15
74 29 140 14 66 27 131 30 145 2 14 7 36 9 50 12 58 42 242 50 300 3 25 8 56
10 70 2 14 6 50 10 80 3 30 8 66 10 80 3 14 7 57 10 95 4 39 8 82 10 97 3 25
10 129 20 318 6 101 6 493 1 610 -9 167 -26 380 -41 485 -2 17 -7 53 -10 80
-7 57 -13 96 -21 140 -3 17 -7 41 -9 55 -6 51 -26 164 -29 169 -2 3 -7 26 -10
51 -3 25 -13 71 -21 102 -8 31 -16 67 -19 80 -4 18 -27 115 -50 208 -71 282
-224 708 -368 1025 -106 233 -176 368 -347 668 -163 287 -516 785 -757 1067
-336 393 -731 794 -1074 1090 -133 115 -254 217 -316 267 -21 17 -68 54 -103
83 -63 49 -64 51 -30 45 19 -3 41 -8 49 -10 8 -2 33 -6 55 -10 22 -3 94 -14
160 -25 66 -10 140 -22 165 -25 25 -3 52 -8 60 -10 8 -2 40 -7 70 -10 30 -3
66 -8 80 -10 14 -2 50 -7 80 -10 30 -3 66 -8 80 -10 45 -7 173 -20 285 -30 39
-3 88 -8 110 -10 22 -2 81 -7 130 -10 50 -3 115 -8 145 -10 263 -19 850 -24
1130 -10 279 13 432 23 470 30 14 2 57 7 95 10 72 6 220 23 265 30 14 2 49 7
79 10 30 4 61 8 70 10 9 1 36 6 61 9 25 3 55 8 66 10 12 2 39 7 60 10 22 4 77
13 124 22 47 9 96 18 110 20 14 2 34 5 45 8 11 2 67 14 125 26 58 12 186 41
285 66 99 25 189 47 199 49 11 3 60 16 110 31 360 104 682 218 994 350 202 86
574 267 706 343 49 28 91 51 94 51 9 0 310 186 427 264 162 108 278 191 415
300 99 79 136 109 194 161 6 6 48 42 92 82 45 40 120 115 167 166 l86 93 -122
195 c-160 255 -321 487 -455 659 -46 58 -245 304 -257 316 -5 6 -39 44 -75 85
-103 117 -484 495 -610 605 -310 271 -710 561 -994 724 -17 9 -74 42 -126 73
-441 256 -1063 512 -1595 658 -115 32 -246 66 -280 74 -11 2 -60 14 -110 25
-49 11 -106 23 -125 26 -19 3 -38 8 -41 10 -3 2 -21 6 -40 9 -19 3 -65 12
-104 20 -38 7 -86 16 -105 19 -19 3 -44 7 -55 10 -11 2 -45 7 -75 11 -30 4
-64 9 -75 11 -31 6 -144 22 -205 29 -30 3 -66 8 -80 10 -25 4 -98 11 -195 20
-27 3 -70 7 -95 10 -369 39 -1108 49 -1560 20 -25 -1 -90 -6 -145 -9 -94 -6
-142 -10 -260 -21 -27 -2 -79 -7 -115 -10 -135 -13 -332 -35 -361 -40 -10 -2
-44 -6 -76 -10 -32 -3 -69 -7 -83 -10 -14 -2 -45 -7 -70 -10 -25 -4 -56 -8
-70 -10 -14 -2 -74 -11 -135 -20 -60 -9 -117 -18 -125 -20 -8 -2 -33 -6 -55
-10 -42 -6 -132 -21 -175 -30 -14 -3 -41 -7 -60 -10 -19 -3 -57 -9 -85 -15
-27 -6 -61 -12 -75 -15 -221 -43 -321 -64 -332 -71 -4 -3 -8 -3 -8 -1 0 5 35
25 160 95 409 229 933 558 1275 801 39 27 95 67 125 88 140 97 577 435 725
561 88 75 242 208 251 216 6 6 44 40 84 76 236 210 624 598 807 806 28 33 66
75 83 94 18 19 75 87 128 150 53 63 101 120 107 127 58 69 268 345 352 463
456 641 821 1324 1068 2005 96 265 207 626 240 783 2 9 11 49 20 87 22 91 20
84 44 199 12 55 23 113 26 130 2 17 7 43 9 59 10 47 25 140 31 187 3 25 8 56
10 70 3 23 9 70 21 180 3 25 7 56 9 70 10 62 19 284 19 485 0 187 -4 272 -19
390 -1 11 -3 27 -4 36 -1 19 -15 23 -134 44 -45 8 -93 17 -107 20 -39 8 -250
43 -300 50 -25 3 -72 10 -105 15 -33 5 -85 12 -115 15 -30 3 -66 8 -80 10 -14
2 -59 6 -100 10 -41 4 -86 8 -100 10 -28 4 -204 16 -320 21 -90 5 -637 4 -700
0 -25 -2 -88 -7 -140 -10 -129 -9 -186 -14 -245 -21 -27 -3 -72 -8 -100 -11
-81 -9 -254 -34 -340 -49 -44 -8 -93 -17 -110 -20 -35 -6 -60 -11 -95 -19 -25
-6 -58 -12 -115 -22 -16 -3 -115 -28 -220 -55 -104 -27 -200 -52 -211 -54 -36
-8 -404 -130 -479 -159 -146 -57 -302 -120 -363 -148 -34 -15 -65 -28 -68 -28
-11 0 -392 -189 -504 -250 -300 -164 -724 -438 -952 -614 -31 -25 -63 -49
-102 -79 -46 -35 -190 -150 -196 -157 -3 -3 -17 -15 -32 -26 -47 -36 -233
-196 -264 -228 -12 -11 -48 -43 -80 -71 -69 -59 -477 -464 -584 -581 -73 -79
-183 -201 -221 -246 -11 -13 -30 -34 -42 -48 -32 -35 -214 -254 -262 -315 -22
-27 -42 -52 -46 -55 -3 -3 -18 -23 -34 -45 -17 -22 -33 -42 -36 -45 -19 -16
-386 -518 -491 -670 -19 -29 -19 -31 5 90 9 41 18 86 20 100 3 14 12 63 21
110 15 82 19 105 31 180 3 19 7 46 10 60 7 37 13 79 21 135 3 28 8 59 10 69 3
18 19 131 29 219 3 20 7 54 10 75 3 20 7 60 10 87 3 28 8 66 10 85 2 19 7 62
10 95 3 33 8 80 10 105 3 25 7 83 10 130 3 47 8 105 10 130 26 297 27 1200 0
1470 -2 19 -6 76 -10 125 -3 50 -8 101 -10 115 -2 14 -6 57 -10 95 -3 39 -8
77 -10 85 -2 8 -6 47 -10 85 -3 39 -8 77 -10 85 -2 8 -6 38 -10 65 -3 28 -10
75 -15 105 -5 30 -11 71 -14 90 -5 31 -37 218 -52 295 -4 23 -53 248 -79 365
-14 62 -67 264 -75 285 -5 14 -12 39 -15 54 -2 15 -18 69 -34 121 -17 51 -33
107 -37 124 -3 17 -10 36 -15 41 -4 6 -10 22 -13 35 -12 64 -131 387 -236 640
-386 929 -1002 1834 -1636 2406 -103 92 -229 194 -241 194 -4 0 -75 -47 -158
-103z"/>
</g>
</svg>
